<svg xmlns="http://www.w3.org/2000/svg" version="1.1" xmlns:xlink="http://www.w3.org/1999/xlink" xmlns:svgjs="http://svgjs.dev/svgjs" width="1000" height="1000" viewBox="0 0 1000 1000"><rect width="1000" height="1000" fill="#ffffff"></rect><g transform="matrix(0.7,0,0,0.7,149.57575757575756,325.7474872043932)"><svg viewBox="0 0 396 197" data-background-color="#ffffff" preserveAspectRatio="xMidYMid meet" height="497" width="1000" xmlns="http://www.w3.org/2000/svg" xmlns:xlink="http://www.w3.org/1999/xlink"><g id="tight-bounds" transform="matrix(1,0,0,1,0.2400000000000091,0.17129928351403123)"><svg viewBox="0 0 395.52 173.5917130931316" height="173.5917130931316" width="395.52"><g><svg viewBox="0 0 395.52 173.5917130931316" height="173.5917130931316" width="395.52"><g><svg viewBox="0 0 395.52 173.5917130931316" height="173.5917130931316" width="395.52"><g id="textblocktransform"><svg viewBox="0 0 395.52 173.5917130931316" height="173.5917130931316" width="395.52" id="textblock"><g><rect width="395.52" height="139.84800299908773" fill="none" stroke-width="8.962371322224001" stroke="#35185a" data-fill-palette-color="none" data-stroke-palette-color="tertiary"></rect><rect width="395.52" height="56.809398433884205" y="139.84800299908773" fill="#35185a" data-fill-palette-color="tertiary"></rect></g><g><svg viewBox="0 0 395.52 138.84800299908773" height="138.84800299908773" width="395.52"><g transform="matrix(1,0,0,1,23.461705032,23.46170503200001)"><svg width="348.596589936" viewBox="1.8599999999999999 -33.89 129.78666666666498 34.230000000000004" height="91.92459293508772" data-palette-color="#35185a"><path d="M14.01-30.08L14.01-30.08Q11.82-30.08 10.6-29.74L10.6-29.74Q10.4-29.69 10.28-29.37 10.16-29.05 10.08-27.91 10.01-26.76 10.01-24.37L10.01-24.37 10.01-18.46Q10.01-17.04 14.26-17.04L14.26-17.04 15.48-17.04Q17.19-17.04 19.02-18.75 20.85-20.46 20.85-23.29L20.85-23.29Q20.85-30.08 14.01-30.08ZM14.79-32.23L14.79-32.23Q16.46-32.23 18.16-31.74 19.87-31.25 21.53-30.27 23.19-29.3 24.27-27.49 25.34-25.68 25.34-23.29L25.34-23.29Q25.34-21.24 23.8-18.99 22.27-16.75 19.63-15.53L19.63-15.53Q19.14-15.33 19.34-15.04L19.34-15.04Q21.78-9.91 24.95-6.45L24.95-6.45Q29.64-1.32 32.57-1.32L32.57-1.32Q32.71-1.03 32.71-0.63L32.71-0.63Q32.71-0.2 32.57 0.1L32.57 0.1Q32.03 0.24 31.25 0.24L31.25 0.24Q24.41 0.24 19.38-6.79L19.38-6.79Q18.6-7.86 17.6-9.35 16.6-10.84 16.14-11.5 15.67-12.16 15.06-12.94 14.45-13.72 13.99-14.11 13.53-14.5 12.99-14.75L12.99-14.75Q12.45-14.94 11.18-14.94L11.18-14.94Q10.79-14.94 10.6-14.92 10.4-14.89 10.21-14.7 10.01-14.5 10.01-14.11L10.01-14.11 10.01-6.93Q10.01-3.66 10.4-2.69L10.4-2.69Q10.64-2.05 12.13-1.66 13.62-1.27 14.26-1.27L14.26-1.27Q14.45-1.27 14.45-0.59L14.45-0.59Q14.45-0.15 14.36 0.15L14.36 0.15Q9.47-0.1 8.01-0.1L8.01-0.1 2.05 0.15Q1.9 0 1.9-0.73L1.9-0.73Q1.9-1.37 2.05-1.37L2.05-1.37Q2.73-1.37 3.96-1.66 5.18-1.95 5.42-2.39L5.42-2.39Q5.76-2.98 5.76-6.98L5.76-6.98 5.76-25.44Q5.76-28.32 5.42-29.64L5.42-29.64Q5.27-30.03 3.98-30.37 2.69-30.71 2.05-30.71L2.05-30.71Q1.86-30.71 1.86-31.3L1.86-31.3Q1.86-31.93 2.05-32.13L2.05-32.13 7.91-32.03Q9.38-32.03 11.38-32.13 13.38-32.23 14.79-32.23ZM44.09-19.43L44.09-19.43Q41.5-19.43 39.87-17.07 38.23-14.7 38.23-11.28L38.23-11.28Q38.23-7.28 40.31-4.42 42.38-1.56 45.16-1.56L45.16-1.56Q47.75-1.56 49.41-4 51.07-6.45 51.07-9.86L51.07-9.86Q51.07-13.82 48.97-16.63 46.87-19.43 44.09-19.43ZM44.63-21.34L44.63-21.34Q49.02-21.34 52.15-18.16 55.27-14.99 55.27-10.55L55.27-10.55Q55.27-6.05 52.22-2.86 49.17 0.34 44.72 0.34 40.28 0.34 37.16-2.86 34.03-6.05 34.03-10.55L34.03-10.55Q34.03-15.09 37.06-18.21 40.09-21.34 44.63-21.34ZM76.02-17.97L76.02-17.97Q75.19-17.48 72.85-15.65 70.5-13.82 68.79-12.06L68.79-12.06Q70.21-10.55 72.26-8.23 74.31-5.91 75.63-4.47 76.95-3.03 77.44-2.59L77.44-2.59Q78.27-1.9 79.54-1.54 80.81-1.17 81.34-1.17L81.34-1.17Q81.54-1.17 81.54-0.39L81.54-0.39Q81.54 0.05 81.49 0.15L81.49 0.15Q76.61-0.1 76.17-0.1L76.17-0.1Q76.07-0.1 71.09 0.15L71.09 0.15Q70.89-0.05 70.89-0.61 70.89-1.17 71.09-1.17L71.09-1.17Q71.58-1.17 72.21-1.37 72.85-1.56 72.85-1.81L72.85-1.81Q72.85-1.9 72.8-1.95L72.8-1.95 65.67-9.67 65.08-9.52 65.08-6.59Q65.18-3.37 65.47-2.25L65.47-2.25Q65.57-1.9 66.74-1.59 67.91-1.27 68.4-1.27L68.4-1.27Q68.55-1.27 68.6-0.68 68.65-0.1 68.55 0.15L68.55 0.15Q63.67-0.1 63.33-0.1L63.33-0.1Q63.03-0.1 58 0.15L58 0.15Q57.81-0.05 57.81-0.66 57.81-1.27 58-1.27L58-1.27Q58.59-1.27 59.74-1.59 60.88-1.9 60.98-2.25L60.98-2.25Q61.32-3.66 61.32-5.66L61.32-5.66 61.32-26.81Q61.32-28.47 61.03-29.93L61.03-29.93Q60.79-30.71 58.54-30.71L58.54-30.71 58.1-30.71Q57.81-30.71 57.81-31.25L57.81-31.25Q57.81-32.03 58.1-32.03L58.1-32.03Q59.57-32.18 60.81-32.42 62.06-32.67 62.76-32.91 63.47-33.15 63.96-33.37 64.45-33.59 64.64-33.74L64.64-33.74 64.89-33.89 64.99-33.89Q65.18-33.89 65.38-33.62 65.57-33.35 65.62-33.11L65.62-33.11Q65.08-31.54 65.08-28.86L65.08-28.86 65.08-11.77Q66.11-12.01 66.3-12.21L66.3-12.21Q67.38-13.13 68.55-14.11 69.72-15.09 70.31-15.58 70.89-16.06 71.43-16.55 71.97-17.04 72.16-17.33 72.36-17.63 72.36-17.92L72.36-17.92Q72.36-18.51 71.28-18.6 70.21-18.7 70.16-18.8L70.16-18.8Q69.82-19.78 70.21-19.92L70.21-19.92 74.07-19.92Q74.8-19.92 75.61-19.97 76.41-20.02 77.51-20.07 78.61-20.12 79.44-20.17L79.44-20.17Q79.63-20.07 79.66-19.73 79.68-19.38 79.58-19.09 79.49-18.8 79.39-18.8L79.39-18.8Q78.75-18.8 77.58-18.51 76.41-18.21 76.02-17.97ZM93.21-19.43L93.21-19.43Q90.62-19.43 88.98-17.07 87.35-14.7 87.35-11.28L87.35-11.28Q87.35-7.28 89.42-4.42 91.5-1.56 94.28-1.56L94.28-1.56Q96.87-1.56 98.53-4 100.19-6.45 100.19-9.86L100.19-9.86Q100.19-13.82 98.09-16.63 95.99-19.43 93.21-19.43ZM93.74-21.34L93.74-21.34Q98.14-21.34 101.26-18.16 104.39-14.99 104.39-10.55L104.39-10.55Q104.39-6.05 101.34-2.86 98.28 0.34 93.84 0.34 89.4 0.34 86.27-2.86 83.15-6.05 83.15-10.55L83.15-10.55Q83.15-15.09 86.17-18.21 89.2-21.34 93.74-21.34ZM121.96-21.39L121.96-21.39Q125.38-21.39 126.75-18.95 128.12-16.5 128.12-11.04L128.12-11.04 128.12-6.59Q128.12-3.76 128.51-2.25L128.51-2.25Q128.6-1.9 129.78-1.59 130.95-1.27 131.44-1.27L131.44-1.27Q131.58-1.27 131.63-0.68 131.68-0.1 131.58 0.15L131.58 0.15Q126.7-0.1 126.36-0.1L126.36-0.1Q126.26-0.1 121.23 0.15L121.23 0.15Q121.03-0.05 121.03-0.66 121.03-1.27 121.23-1.27L121.23-1.27Q121.82-1.27 122.87-1.59 123.92-1.9 124.01-2.25L124.01-2.25Q124.36-3.66 124.36-5.66L124.36-5.66 124.36-10.55Q124.36-15.09 123.18-16.75 122.01-18.41 119.37-18.41L119.37-18.41Q117.81-18.41 116.37-17.26 114.93-16.11 114.93-15.19L114.93-15.19 114.93-6.59Q114.93-3.76 115.32-2.25L115.32-2.25Q115.42-1.9 116.59-1.59 117.76-1.27 118.25-1.27L118.25-1.27Q118.4-1.27 118.45-0.68 118.5-0.1 118.4 0.15L118.4 0.15Q113.52-0.1 113.17-0.1L113.17-0.1Q112.88-0.1 107.85 0.15L107.85 0.15Q107.66-0.05 107.66-0.66 107.66-1.27 107.85-1.27L107.85-1.27Q108.44-1.27 109.58-1.59 110.73-1.9 110.83-2.25L110.83-2.25Q111.17-3.66 111.17-5.66L111.17-5.66 111.17-14.89Q111.17-16.8 110.49-17.53L110.49-17.53Q110-18.12 109.29-18.33 108.58-18.55 108.12-18.55 107.66-18.55 107.66-18.65L107.66-18.65Q107.66-19.82 107.95-19.87L107.95-19.87Q113.12-20.65 114.69-21.14L114.69-21.14Q114.74-21.14 114.83-21.17 114.93-21.19 114.93-21.19L114.93-21.19Q115.13-21.19 115.18-20.78 115.22-20.36 115.18-20.17L115.18-20.17Q114.98-18.8 114.98-18.21L114.98-18.21Q114.98-18.02 115.08-18.02L115.08-18.02Q115.13-18.02 115.22-18.12L115.22-18.12Q116.35-19.29 118.28-20.34 120.2-21.39 121.96-21.39Z" opacity="1" transform="matrix(1,0,0,1,0,0)" fill="#35185a" class="wordmark-text-0" data-fill-palette-color="primary" id="text-0"></path></svg></g></svg></g><g transform="matrix(1,0,0,1,75.54432,138.84800299908773)"><svg viewBox="0 0 244.43135999999998 34.743710094043884" height="34.743710094043884" width="244.43135999999998"><g transform="matrix(1,0,0,1,20,3.2)"><svg width="204.43135999999998" viewBox="1.5 -36.75 338.60076915968 46.95" height="28.34371009404388" data-palette-color="#ffffff"><path d="M27.75-2.65L31.15-2.35 31.1 0 23.5 0 16.35-13 10.4-12.95 10.4-2.95 15.75-2.35 15.7 0 1.8 0 1.5-1.6 5.75-3.15 5.75-29.9 2.2-30.1 2.25-32.5 16.2-32.9Q21.5-32.9 24.78-30.18 28.05-27.45 28.05-23.25L28.05-23.25Q28.05-20.25 26.2-17.57 24.35-14.9 20.95-13.7L20.95-13.7 27.75-2.65ZM10.4-29.2L10.4-16.25Q12.65-15.9 14.65-15.9L14.65-15.9Q19.25-15.9 21.1-18.07 22.95-20.25 22.95-23.25L22.95-23.25Q22.95-28.05 19.05-29.95L19.05-29.95 10.4-29.2ZM49.2-12.85L36.35-13.1Q36.35-8.15 38.62-5.6 40.9-3.05 44.55-3.05L44.55-3.05Q47.25-3.05 50.95-4.7L50.95-4.7 51.7-2.55 43.9 0.75Q38.4 0.75 35.02-2.63 31.65-6 31.65-11.3L31.65-11.3Q31.65-16.7 34.97-20.55 38.3-24.4 43.1-24.4L43.1-24.4Q45.7-24.4 47.77-23.25 49.85-22.1 50.97-20.1 52.1-18.1 52.05-15.65L52.05-15.65 49.2-12.85ZM40.6-21.35L40.6-21.35Q37.75-19.85 36.75-15.75L36.75-15.75 47.7-16.25Q47.2-18.65 45.22-20.1 43.25-21.55 40.6-21.35ZM76.55-3.75L77.3-1.55 72.25 0.75Q71.5 0.65 70.35-0.43 69.2-1.5 68.7-2.7L68.7-2.7 63.05 0.7 61.85 0.75Q58.85 0.75 57.02-0.95 55.2-2.65 55.2-5.2L55.2-5.2Q55.2-8.6 58.7-10.55L58.7-10.55 68.45-10.8 68.45-15.95Q68.45-18.25 67.9-19.43 67.35-20.6 66-21.3L66-21.3Q62.95-21.2 60.35-20.45L60.35-20.45 59.95-15.25 57.3-15.05Q56-17.4 55.85-21.05L55.85-21.05Q58.05-22.3 61.75-23.48 65.45-24.65 67-24.65L67-24.65Q68.4-24.65 69.9-23.63 71.4-22.6 72.15-21.48 72.9-20.35 72.95-17.4L72.95-17.4 72.95-4.3Q72.95-3.3 74.25-3.3L74.25-3.3Q75-3.3 76.55-3.75L76.55-3.75ZM61.2-2.9L61.2-2.9Q64.15-2.8 68.45-4.75L68.45-4.75 68.45-8.2 65.95-8.35Q59.9-8.35 59.9-5.2L59.9-5.2Q59.9-3.7 61.2-2.9ZM97.74-2L90.94 0.75Q85.54 0.8 82.29-2.63 79.04-6.05 79.04-11.7L79.04-11.7Q79.04-17.25 82.27-20.83 85.49-24.4 90.44-24.4L90.44-24.4Q94.64-24.4 98.04-21.1L98.04-21.1 95.39-17.55Q90.99-20.95 86.79-21.25L86.79-21.25Q83.69-17.65 83.69-12.7L83.69-12.7Q83.69-8.4 85.82-5.68 87.94-2.95 91.69-2.95L91.69-2.95Q94.29-2.95 96.89-4.1L96.89-4.1 97.74-2ZM109.34-3.4L109.34-3.4Q110.79-3.4 113.94-4.55L113.94-4.55 114.79-2.25 108.29 0.75Q106.59 0.85 104.92-0.53 103.24-1.9 103.24-3.5L103.24-3.5 103.24-19.65 100.14-19.6 99.79-22Q101.39-22.7 103.34-23.15L103.34-23.15 105.34-29.45 107.69-29.45 107.69-23.4 114.69-23.4 114.89-21.95 112.54-19.55 107.69-19.55 107.69-6.1Q107.69-4.55 108.04-3.98 108.39-3.4 109.34-3.4ZM146.29-32.9L146.29-32.9Q152.54-32.9 156.74-28.08 160.94-23.25 160.94-16.45L160.94-16.45Q160.94-9.25 156.56-4.73 152.19-0.2 145.09 0L145.09 0 130.99 0 130.69-1.6 134.94-3.15 134.94-29.9 131.39-30.1 131.44-32.5Q139.34-32.9 146.29-32.9ZM144.24-3.3L144.24-3.3Q149.44-3.3 152.59-6.98 155.74-10.65 155.74-16.45L155.74-16.45Q155.74-20.9 153.76-24.65 151.79-28.4 148.79-29.95L148.79-29.95 139.59-29.2 139.59-3.95Q142.04-3.3 144.24-3.3ZM180.48-12.85L167.63-13.1Q167.63-8.15 169.91-5.6 172.18-3.05 175.83-3.05L175.83-3.05Q178.53-3.05 182.23-4.7L182.23-4.7 182.98-2.55 175.18 0.75Q169.68 0.75 166.31-2.63 162.93-6 162.93-11.3L162.93-11.3Q162.93-16.7 166.26-20.55 169.58-24.4 174.38-24.4L174.38-24.4Q176.98-24.4 179.06-23.25 181.13-22.1 182.26-20.1 183.38-18.1 183.33-15.65L183.33-15.65 180.48-12.85ZM171.88-21.35L171.88-21.35Q169.03-19.85 168.03-15.75L168.03-15.75 178.98-16.25Q178.48-18.65 176.51-20.1 174.53-21.55 171.88-21.35ZM209.93-23.4L210.23-21.6 207.08-20.4Q202.53-7 199.73-0.15L199.73-0.15Q198.38 0.3 196.53 0.3L196.53 0.3 193.93 0.1 186.78-20.8 183.98-20.95 184.03-23.4 194.03-23.4 194.33-21.6 191.83-20.65 195.58-8.65 196.28-3.3 197.48-3.3Q199.98-10.65 202.58-20.8L202.58-20.8 199.88-20.95 199.93-23.4 209.93-23.4ZM227.28-12.85L214.43-13.1Q214.43-8.15 216.7-5.6 218.98-3.05 222.63-3.05L222.63-3.05Q225.33-3.05 229.03-4.7L229.03-4.7 229.78-2.55 221.98 0.75Q216.48 0.75 213.1-2.63 209.73-6 209.73-11.3L209.73-11.3Q209.73-16.7 213.05-20.55 216.38-24.4 221.18-24.4L221.18-24.4Q223.78-24.4 225.85-23.25 227.93-22.1 229.05-20.1 230.18-18.1 230.13-15.65L230.13-15.65 227.28-12.85ZM218.68-21.35L218.68-21.35Q215.83-19.85 214.83-15.75L214.83-15.75 225.78-16.25Q225.28-18.65 223.3-20.1 221.33-21.55 218.68-21.35ZM240.83-35L240.83-3.2Q243.33-2.9 244.43-2.4L244.43-2.4 244.13 0 232.83 0 232.58-1.65Q233.78-2.25 236.38-3.05L236.38-3.05 236.38-33.15 232.63-32.85 232.03-35.2Q235.38-36.65 238.83-36.75L238.83-36.75 240.83-35ZM246.42-11.8Q246.42-17.4 249.6-20.9 252.77-24.4 257.72-24.4L257.72-24.4Q262.62-24.4 265.67-20.8 268.72-17.2 268.72-11.5L268.72-11.5Q268.72-5.85 265.72-2.43 262.72 1 257.82 1L257.82 1Q252.87 1 249.65-2.6 246.42-6.2 246.42-11.8ZM260.77-2.6L260.77-2.6Q264.02-4.75 264.02-10.95L264.02-10.95Q264.02-15.4 262.37-18.35 260.72-21.3 257.32-21.3L257.32-21.3Q255.07-21.3 253.52-20.2L253.52-20.2Q251.17-17.4 251.17-12.35L251.17-12.35Q251.17-8.05 253-5.15 254.82-2.25 258.37-2.25L258.37-2.25Q259.52-2.25 260.77-2.6ZM283.32 0.95L283.32 0.95Q281.42 0.95 279.47 0.5L279.47 0.5 279.47 6.95Q282.22 7.2 283.57 7.8L283.57 7.8 283.27 10.2 271.97 10.2 271.72 8.55 275.02 7.35 275.02-20.6 271.32-20.3 270.72-22.65Q274.07-24.1 277.52-24.2L277.52-24.2 279.47-22.45 279.47-20.35 285.12-24.05 287.02-24.25Q290.97-24.25 293.6-20.88 296.22-17.5 296.22-12.5L296.22-12.5Q296.22-6.7 292.57-2.88 288.92 0.95 283.32 0.95ZM285.37-20.15L285.37-20.15Q283.12-20.15 279.47-17.8L279.47-17.8 279.47-4Q281.87-2.35 285.27-2.35L285.27-2.35 287.27-2.5Q289.22-3.7 290.37-6.2 291.52-8.7 291.52-11.5L291.52-11.5Q291.52-15.05 289.77-17.6 288.02-20.15 285.37-20.15ZM316.02-12.85L303.17-13.1Q303.17-8.15 305.44-5.6 307.72-3.05 311.37-3.05L311.37-3.05Q314.07-3.05 317.77-4.7L317.77-4.7 318.52-2.55 310.72 0.75Q305.22 0.75 301.84-2.63 298.47-6 298.47-11.3L298.47-11.3Q298.47-16.7 301.79-20.55 305.12-24.4 309.92-24.4L309.92-24.4Q312.52-24.4 314.59-23.25 316.67-22.1 317.79-20.1 318.92-18.1 318.87-15.65L318.87-15.65 316.02-12.85ZM307.42-21.35L307.42-21.35Q304.57-19.85 303.57-15.75L303.57-15.75 314.52-16.25Q314.02-18.65 312.04-20.1 310.07-21.55 307.42-21.35ZM340.07-23.15L340.07-23.15Q340.27-19.45 339.17-15.05L339.17-15.05 336.47-15.05 335.92-20.55Q331.87-18.3 329.07-14.6L329.07-14.6 329.07-3.3Q332.72-3.05 334.22-2.4L334.22-2.4 333.92 0 321.22 0 320.97-1.65 324.62-3 324.62-20.6 320.87-20.3 320.27-22.65Q323.62-24.1 327.07-24.2L327.07-24.2 329.07-22.45 329.07-17.9 334.32-23.5Q335.77-24.1 336.97-24.1L336.97-24.1Q338.57-24.1 340.07-23.15Z" opacity="1" transform="matrix(1,0,0,1,0,0)" fill="#ffffff" class="slogan-text-1" data-fill-palette-color="quaternary" id="text-1"></path></svg></g></svg></g></svg></g></svg></g></svg></g><defs></defs></svg><rect width="395.52" height="173.5917130931316" fill="none" stroke="none" visibility="hidden"></rect></g></svg></g></svg>